<svg width="36" height="36" viewBox="0 0 36 36" fill="none" xmlns="http://www.w3.org/2000/svg">
<path d="M18 3C26.2845 3 33 9.717 33 18C33 26.283 26.2845 33 18 33C9.7155 33 3 26.283 3 18C3 9.717 9.7155 3 18 3ZM18 5.5005C11.1075 5.5005 5.5005 11.1075 5.5005 18C5.5005 24.8925 11.1075 30.4995 18 30.4995C24.8925 30.4995 30.4995 24.8925 30.4995 18C30.4995 11.1075 24.8925 5.5005 18 5.5005ZM18 23.25C18.8285 23.25 19.5 23.9216 19.5 24.75C19.5 25.5784 18.8285 26.25 18 26.25C17.1715 26.25 16.5 25.5784 16.5 24.75C16.5 23.9216 17.1715 23.25 18 23.25ZM18 10.125C20.2782 10.125 22.125 11.9718 22.125 14.25C22.125 15.7662 21.6788 16.611 20.5484 17.7879L20.2955 18.0455C19.3626 18.9783 19.125 19.3745 19.125 20.25C19.125 20.8713 18.6213 21.375 18 21.375C17.3787 21.375 16.875 20.8713 16.875 20.25C16.875 18.7338 17.3212 17.889 18.4516 16.7121L18.7045 16.4545C19.6374 15.5217 19.875 15.1256 19.875 14.25C19.875 13.2145 19.0356 12.375 18 12.375C17.0292 12.375 16.2308 13.1128 16.1348 14.0583L16.125 14.25C16.125 14.8713 15.6213 15.375 15 15.375C14.3787 15.375 13.875 14.8713 13.875 14.25C13.875 11.9718 15.7218 10.125 18 10.125Z" fill="white"/>
</svg>
