<svg width="16" height="16" viewBox="0 0 16 16" fill="none" xmlns="http://www.w3.org/2000/svg">
<path d="M1.33331 5.33333V4.16667C1.33331 2.97005 2.30336 2 3.49998 2H5.4191C5.81693 2 6.19845 2.15803 6.47976 2.43934L7.49998 3.45956L5.77265 5.18689C5.67889 5.28065 5.55171 5.33333 5.4191 5.33333H1.33331ZM1.33331 6.33333V11.8333C1.33331 13.0299 2.30336 14 3.49998 14H12.5C13.6966 14 14.6666 13.0299 14.6666 11.8333V5.83333C14.6666 4.63671 13.6966 3.66667 12.5 3.66667H8.70711L6.47976 5.89399C6.19845 6.1753 5.81693 6.33333 5.4191 6.33333H1.33331Z" fill="#008570"/>
</svg>
