<svg width="14" height="14" viewBox="0 0 14 14" fill="none" xmlns="http://www.w3.org/2000/svg">
<path fill-rule="evenodd" clip-rule="evenodd" d="M7.92509 1.16669C8.19899 1.16675 8.46414 1.26319 8.67409 1.4391L8.74992 1.50852L11.3248 4.08335C11.5184 4.27703 11.6378 4.53268 11.6619 4.80552L11.6666 4.90819V11.6667C11.6667 11.961 11.5555 12.2445 11.3554 12.4603C11.1552 12.6762 10.8809 12.8084 10.5874 12.8304L10.4999 12.8334H3.49992C3.20558 12.8334 2.92209 12.7223 2.70627 12.5221C2.49044 12.322 2.35824 12.0477 2.33617 11.7542L2.33325 11.6667V2.33335C2.33316 2.03902 2.44432 1.75552 2.64446 1.5397C2.84459 1.32388 3.11891 1.19168 3.41242 1.1696L3.49992 1.16669H7.92509ZM6.99992 2.33335H3.49992V11.6667H10.4999V5.83335H7.87492C7.6574 5.83334 7.44769 5.75232 7.28667 5.60608C7.12566 5.45984 7.02488 5.25886 7.004 5.04235L6.99992 4.95835V2.33335ZM7.57625 6.91135C7.71589 7.7998 8.18051 8.60473 8.88 9.17002C9.39742 9.58827 8.92434 10.4073 8.30367 10.1687C7.46453 9.84558 6.53531 9.84558 5.69617 10.1687C5.07492 10.4079 4.60184 9.58827 5.11925 9.17002C5.81874 8.60473 6.28337 7.7998 6.423 6.91135C6.52683 6.25394 7.473 6.25452 7.57625 6.91135ZM6.99875 8.25535L6.59742 8.95302H7.40242L6.99875 8.25535ZM8.16658 2.57485V4.66669H10.2584L8.16658 2.57485Z" fill="#465052"/>
</svg>
