<svg width="16" height="16" viewBox="0 0 16 16" fill="none" xmlns="http://www.w3.org/2000/svg">
<path d="M2.33331 4.16667V5.33333H5.4191C5.55171 5.33333 5.67889 5.28065 5.77265 5.18689L6.79285 4.16667L5.77265 3.14645C5.67889 3.05268 5.55171 3 5.4191 3H3.49998C2.85565 3 2.33331 3.52233 2.33331 4.16667ZM1.33331 4.16667C1.33331 2.97005 2.30336 2 3.49998 2H5.4191C5.81693 2 6.19845 2.15803 6.47976 2.43934L7.70711 3.66667H12.5C13.6966 3.66667 14.6666 4.63671 14.6666 5.83333V9.5844C14.3676 9.37173 14.0302 9.20967 13.6666 9.1108V5.83333C13.6666 5.189 13.1443 4.66667 12.5 4.66667H7.70711L6.47976 5.89399C6.19845 6.1753 5.81693 6.33333 5.4191 6.33333H2.33331V11.8333C2.33331 12.4777 2.85565 13 3.49998 13H7.44411C7.54298 13.3635 7.70505 13.701 7.91771 14H3.49998C2.30336 14 1.33331 13.0299 1.33331 11.8333V4.16667ZM15.3333 12.1667C15.3333 10.7859 14.214 9.66667 12.8333 9.66667L12.7654 9.6712C12.5214 9.70433 12.3333 9.91353 12.3333 10.1667C12.3333 10.4428 12.5572 10.6667 12.8333 10.6667L12.936 10.6701C13.7165 10.7229 14.3333 11.3727 14.3333 12.1667C14.3333 12.9951 13.6617 13.6667 12.8333 13.6667L12.831 13.6697L12.7632 13.6746C12.5193 13.7089 12.3322 13.9189 12.3333 14.172C12.3346 14.4481 12.5594 14.671 12.8356 14.6697V14.6667L12.9682 14.6632C14.285 14.5942 15.3333 13.5029 15.3333 12.1667ZM11 10.1667C11 9.89053 10.7761 9.66667 10.5 9.66667L10.3672 9.67013C9.04825 9.73913 7.99998 10.8305 7.99998 12.1667C7.99998 13.5474 9.11925 14.6667 10.5 14.6667L10.5678 14.6621C10.8118 14.629 11 14.4198 11 14.1667C11 13.8905 10.7761 13.6667 10.5 13.6667L10.3973 13.6632C9.61678 13.6104 8.99998 12.9606 8.99998 12.1667C8.99998 11.3383 9.67158 10.6667 10.5 10.6667L10.5678 10.6621C10.8118 10.629 11 10.4198 11 10.1667ZM13.3333 12.1667C13.3333 11.8905 13.1094 11.6667 12.8333 11.6667H10.5L10.4321 11.6712C10.1881 11.7043 9.99998 11.9135 9.99998 12.1667C9.99998 12.4428 10.2238 12.6667 10.5 12.6667H12.8333L12.9012 12.6621C13.1452 12.629 13.3333 12.4198 13.3333 12.1667Z" fill="#008570"/>
</svg>
