<svg width="13" height="13" viewBox="0 0 13 13" fill="none" xmlns="http://www.w3.org/2000/svg">
<path d="M2.49805 1.16632H4.80753C5.08367 1.16632 5.30753 1.39018 5.30753 1.66632C5.30753 1.91945 5.1194 2.12865 4.87533 2.16175L4.80753 2.16632H2.49805C1.70414 2.16632 1.05429 2.78309 1.00151 3.56362L0.998047 3.66632V9.99963C0.998047 10.7936 1.61482 11.4434 2.39535 11.4962L2.49805 11.4996H8.83187C9.6258 11.4996 10.2756 10.8829 10.3284 10.1024L10.3319 9.99963V9.66783C10.3319 9.39163 10.5557 9.16783 10.8319 9.16783C11.085 9.16783 11.2942 9.35589 11.3273 9.59996L11.3319 9.66783V9.99963C11.3319 11.3358 10.2836 12.4272 8.96467 12.4962L8.83187 12.4996H2.49805C1.16187 12.4996 0.0705335 11.4514 0.00151348 10.1324L-0.00195312 9.99963V3.66632C-0.00195312 2.33015 1.04629 1.23881 2.36527 1.16979L2.49805 1.16632ZM7.6674 2.84623V0.999653C7.6674 0.583673 8.13853 0.359619 8.45867 0.592853L8.51347 0.638813L12.5099 4.47215C12.6964 4.65105 12.7134 4.93839 12.5608 5.13703L12.5099 5.19376L8.51353 9.02836C8.21333 9.31636 7.7254 9.13143 7.67213 8.73889L7.6674 8.66756V6.85069L7.4384 6.87076C5.8386 7.03763 4.30523 7.75823 2.82868 9.04456C2.48261 9.34603 1.94719 9.06096 2.00411 8.60556C2.44729 5.05919 4.30188 3.10452 7.4678 2.85932L7.6674 2.84623ZM8.6674 2.17208V3.33299C8.6674 3.60913 8.44353 3.83299 8.1674 3.83299C5.58513 3.83299 3.98469 4.95041 3.2932 7.27109L3.24049 7.45683L3.47529 7.29896C4.96627 6.32443 6.53253 5.83296 8.1674 5.83296C8.42053 5.83296 8.62973 6.02109 8.6628 6.26516L8.6674 6.33296V7.49489L11.4415 4.83305L8.6674 2.17208Z" fill="#034052"/>
</svg>
