<svg width="17" height="16" viewBox="0 0 17 16" fill="none" xmlns="http://www.w3.org/2000/svg">
<g clip-path="url(#clip0_35343_1004)">
<path d="M16.6875 8.04077C16.6875 12.2609 13.2545 15.6938 9.03438 15.6938C5.91192 15.6938 3.13058 13.8265 1.94818 10.9369C1.83393 10.657 1.96786 10.3378 2.2472 10.2235C2.52599 10.1098 2.84577 10.2438 2.96002 10.5226C3.97351 13 6.35744 14.6005 9.03383 14.6005C12.651 14.6005 15.5936 11.6579 15.5936 8.04077C15.5936 4.4236 12.651 1.48099 9.03383 1.48099C6.35252 1.48099 3.97788 3.08868 2.97041 5.5322L3.23827 5.28676C3.46075 5.08286 3.80678 5.09816 4.01068 5.32065C4.21458 5.54313 4.19982 5.88916 3.97679 6.09306L2.5238 7.42524C2.42212 7.51817 2.28983 7.56901 2.15426 7.56901C2.12201 7.56901 2.09031 7.56628 2.05805 7.56026C1.89023 7.5302 1.74592 7.42415 1.66829 7.27273L0.876748 5.73555C0.738446 5.46715 0.84395 5.13752 1.11235 4.99922C1.3813 4.85873 1.71039 4.96587 1.84869 5.23482L1.8875 5.31026C3.01633 2.3518 5.83649 0.387695 9.03438 0.387695C13.2545 0.387695 16.6875 3.82064 16.6875 8.04077Z" fill="#1F454B"/>
</g>
<defs>
<clipPath id="clip0_35343_1004">
<rect width="17" height="16" fill="white"/>
</clipPath>
</defs>
</svg>
