<svg width="34" height="34" viewBox="0 0 34 34" fill="none" xmlns="http://www.w3.org/2000/svg">
<path d="M2.83337 11.3333V8.85417C2.83337 6.31135 4.89472 4.25 7.43754 4.25H11.5157C12.3611 4.25 13.1718 4.58582 13.7696 5.1836L15.9375 7.35157L12.267 11.0221C12.0677 11.2214 11.7975 11.3333 11.5157 11.3333H2.83337ZM2.83337 13.4583V25.1458C2.83337 27.6886 4.89472 29.75 7.43754 29.75H26.5625C29.1053 29.75 31.1667 27.6886 31.1667 25.1458V12.3958C31.1667 9.85302 29.1053 7.79167 26.5625 7.79167H18.5027L13.7696 12.5247C13.1718 13.1225 12.3611 13.4583 11.5157 13.4583H2.83337Z" fill="#222B2D"/>
</svg>
