<svg width="14" height="14" viewBox="0 0 14 14" fill="none" xmlns="http://www.w3.org/2000/svg">
<path d="M5.24992 2.33331H6.99992L8.16659 3.49998H11.0833C11.3927 3.49998 11.6894 3.6229 11.9082 3.84169C12.127 4.06048 12.2499 4.35723 12.2499 4.66665V8.74998C12.2499 9.0594 12.127 9.35615 11.9082 9.57494C11.6894 9.79373 11.3927 9.91665 11.0833 9.91665H5.24992C4.9405 9.91665 4.64375 9.79373 4.42496 9.57494C4.20617 9.35615 4.08325 9.0594 4.08325 8.74998V3.49998C4.08325 3.19056 4.20617 2.89381 4.42496 2.67502C4.64375 2.45623 4.9405 2.33331 5.24992 2.33331Z" stroke="#CBD3D4" stroke-linecap="round" stroke-linejoin="round"/>
<path d="M9.91667 9.91663V11.0833C9.91667 11.3927 9.79375 11.6895 9.57496 11.9083C9.35617 12.127 9.05942 12.25 8.75 12.25H2.91667C2.60725 12.25 2.3105 12.127 2.09171 11.9083C1.87292 11.6895 1.75 11.3927 1.75 11.0833V5.83329C1.75 5.52387 1.87292 5.22713 2.09171 5.00833C2.3105 4.78954 2.60725 4.66663 2.91667 4.66663H4.08333" stroke="#CBD3D4" stroke-linecap="round" stroke-linejoin="round"/>
</svg>
