<svg width="16" height="16" viewBox="0 0 16 16" fill="none" xmlns="http://www.w3.org/2000/svg">
<path d="M10.1666 9.00004H7.49998C7.22398 9.00004 6.99998 8.77604 6.99998 8.50004V4.50004C6.99998 4.22404 7.22398 4.00004 7.49998 4.00004C7.77598 4.00004 7.99998 4.22404 7.99998 4.50004V8.00004H10.1666C10.4426 8.00004 10.6666 8.22404 10.6666 8.50004C10.6666 8.77604 10.4426 9.00004 10.1666 9.00004ZM7.99998 1.33337C4.31865 1.33337 1.33331 4.31871 1.33331 8.00004C1.33331 11.6814 4.31865 14.6667 7.99998 14.6667C11.6813 14.6667 14.6666 11.6814 14.6666 8.00004C14.6666 4.31871 11.6813 1.33337 7.99998 1.33337Z" fill="#008570"/>
</svg>
