<svg width="14" height="14" viewBox="0 0 14 14" fill="none" xmlns="http://www.w3.org/2000/svg">
<path fill-rule="evenodd" clip-rule="evenodd" d="M11.2001 0.700012H2.8001C2.61445 0.700012 2.4364 0.773762 2.30512 0.905037C2.17385 1.03631 2.1001 1.21436 2.1001 1.40001V12.6C2.1001 12.7857 2.17385 12.9637 2.30512 13.095C2.4364 13.2263 2.61445 13.3 2.8001 13.3H11.2001C11.3857 13.3 11.5638 13.2263 11.6951 13.095C11.8263 12.9637 11.9001 12.7857 11.9001 12.6V1.40001C11.9001 1.21436 11.8263 1.03631 11.6951 0.905037C11.5638 0.773762 11.3857 0.700012 11.2001 0.700012ZM10.5001 5.60001H6.3001V11.9H5.6001V5.60001H3.5001V4.90001H5.6001V2.10001H6.3001V4.90001H10.5001V5.60001Z" fill="#008570"/>
</svg>
