<svg width="33" height="34" viewBox="0 0 33 34" fill="none" xmlns="http://www.w3.org/2000/svg">
<path d="M16.5168 3.59375C17.526 3.60538 18.5313 3.72198 19.5163 3.94168C19.9463 4.03759 20.2679 4.39608 20.3167 4.83394L20.5508 6.93336C20.6568 7.89731 21.4706 8.62741 22.4408 8.62842C22.7017 8.62884 22.9596 8.57452 23.2007 8.46789L25.1265 7.6219C25.527 7.44594 25.9951 7.54187 26.294 7.86123C27.6858 9.34763 28.7222 11.1303 29.3256 13.0752C29.4557 13.4945 29.3059 13.9503 28.9526 14.2108L27.2455 15.4691C26.7585 15.8268 26.471 16.395 26.471 16.9993C26.471 17.6035 26.7585 18.1716 27.2466 18.5302L28.955 19.7889C29.3085 20.0493 29.4584 20.5051 29.3283 20.9247C28.7253 22.8692 27.6893 24.6517 26.2984 26.1384C25.9997 26.4577 25.5321 26.5539 25.1316 26.3783L23.1979 25.5312C22.6446 25.2891 22.0094 25.3245 21.4864 25.6268C20.9637 25.9288 20.6158 26.4616 20.5494 27.0618L20.3169 29.1611C20.2689 29.5939 19.9543 29.95 19.5305 30.0508C17.539 30.5246 15.4639 30.5246 13.4723 30.0508C13.0486 29.95 12.7339 29.5939 12.686 29.1611L12.4539 27.065C12.3857 26.4659 12.0372 25.9347 11.5148 25.6336C10.9925 25.3325 10.3582 25.2972 9.80678 25.5379L7.87266 26.3852C7.47205 26.5608 7.00429 26.4645 6.70557 26.145C5.31385 24.6567 4.27789 22.8719 3.67565 20.9254C3.54593 20.5061 3.69581 20.0506 4.04917 19.7903L5.75875 18.5308C6.24569 18.173 6.53327 17.6049 6.53327 17.0007C6.53327 16.3964 6.24569 15.8282 5.7581 15.47L4.0496 14.2127C3.69573 13.9522 3.54571 13.4962 3.67589 13.0765C4.27917 11.1317 5.31567 9.349 6.70743 7.8626C7.00644 7.54325 7.47442 7.44731 7.87496 7.62327L9.80048 8.46912C10.3545 8.71227 10.9915 8.67554 11.5167 8.3687C12.0396 8.06537 12.3878 7.53205 12.455 6.93176L12.6888 4.83394C12.7377 4.39586 13.0596 4.03724 13.4899 3.94154C14.4761 3.7222 15.4825 3.60564 16.5168 3.59375ZM16.5171 5.65611C15.8927 5.66346 15.2702 5.71734 14.6545 5.81715L14.5047 7.16075C14.3648 8.41131 13.64 9.5214 12.5543 10.1512C11.462 10.7894 10.1301 10.8662 8.9713 10.3576L7.73615 9.81502C6.94975 10.7695 6.32382 11.8456 5.88297 13.0011L6.97994 13.8083C7.99581 14.5547 8.59577 15.7401 8.59577 17.0007C8.59577 18.2611 7.99581 19.4465 6.98101 20.1921L5.88232 21.0015C6.32279 22.159 6.94881 23.2371 7.73575 24.1934L8.98031 23.6483C10.1327 23.1452 11.4555 23.2187 12.5449 23.8467C13.6342 24.4746 14.3609 25.5823 14.5035 26.8348L14.6534 28.1877C15.8766 28.3957 17.1263 28.3957 18.3495 28.1877L18.4994 26.835C18.638 25.5829 19.3639 24.4713 20.4545 23.841C21.5452 23.2106 22.8707 23.1366 24.0251 23.6419L25.2687 24.1867C26.0549 23.2319 26.6806 22.1556 27.1215 20.9999L26.0242 20.1915C25.0084 19.4452 24.4085 18.2598 24.4085 16.9993C24.4085 15.7387 25.0084 14.5533 26.023 13.8079L27.1187 13.0002C26.6779 11.8446 26.0519 10.7683 25.2654 9.81364L24.0327 10.3551C23.5304 10.5774 22.987 10.6918 22.4382 10.6909C20.4174 10.6888 18.7213 9.16738 18.5008 7.16027L18.351 5.81671C17.7385 5.71702 17.1223 5.66329 16.5171 5.65611ZM16.4996 11.8437C19.3474 11.8437 21.6558 14.1522 21.6558 17C21.6558 19.8476 19.3474 22.1562 16.4996 22.1562C13.6519 22.1562 11.3433 19.8476 11.3433 17C11.3433 14.1522 13.6519 11.8437 16.4996 11.8437ZM16.4996 13.9062C14.791 13.9062 13.4058 15.2913 13.4058 17C13.4058 18.7086 14.791 20.0938 16.4996 20.0938C18.2082 20.0938 19.5933 18.7086 19.5933 17C19.5933 15.2913 18.2082 13.9062 16.4996 13.9062Z" fill="white"/>
</svg>
