<svg width="14" height="14" viewBox="0 0 14 14" fill="none" xmlns="http://www.w3.org/2000/svg">
<g clip-path="url(#clip0_7_1275)">
<path d="M12.6875 6.5625H10.5268C10.8246 5.96222 10.9643 5.29586 10.9327 4.6265C10.901 3.95714 10.6991 3.30694 10.3459 2.73744C9.99276 2.16794 9.50012 1.69799 8.91461 1.37208C8.3291 1.04617 7.6701 0.875075 7 0.875C6.88397 0.875 6.77269 0.921094 6.69064 1.00314C6.60859 1.08519 6.5625 1.19647 6.5625 1.3125V3.4732C5.96222 3.17538 5.29586 3.03568 4.6265 3.06734C3.95714 3.09899 3.30694 3.30095 2.73744 3.65409C2.16794 4.00724 1.69799 4.49988 1.37208 5.08539C1.04617 5.6709 0.875075 6.3299 0.875 7C0.875 7.11603 0.921094 7.22731 1.00314 7.30936C1.08519 7.39141 1.19647 7.4375 1.3125 7.4375H3.4732C3.17538 8.03778 3.03568 8.70414 3.06734 9.3735C3.09899 10.0429 3.30095 10.6931 3.65409 11.2626C4.00724 11.8321 4.49988 12.302 5.08539 12.6279C5.6709 12.9538 6.3299 13.1249 7 13.125C7.11603 13.125 7.22731 13.0789 7.30936 12.9969C7.39141 12.9148 7.4375 12.8035 7.4375 12.6875V10.5268C8.03778 10.8246 8.70414 10.9643 9.3735 10.9327C10.0429 10.901 10.6931 10.6991 11.2626 10.3459C11.8321 9.99276 12.302 9.50012 12.6279 8.91461C12.9538 8.3291 13.1249 7.6701 13.125 7C13.125 6.88397 13.0789 6.77269 12.9969 6.69064C12.9148 6.60859 12.8035 6.5625 12.6875 6.5625ZM10.0625 4.8125C10.0657 5.43837 9.87461 6.04981 9.51562 6.5625H7.4375V1.78117C8.16599 1.88735 8.83199 2.25199 9.31391 2.80851C9.79584 3.36503 10.0615 4.07632 10.0625 4.8125ZM4.8125 3.9375C5.43837 3.93431 6.04981 4.12539 6.5625 4.48438V6.5625H1.78117C1.88735 5.83401 2.25199 5.16801 2.80851 4.68609C3.36503 4.20416 4.07632 3.93846 4.8125 3.9375ZM3.9375 9.1875C3.93431 8.56163 4.12539 7.95019 4.48438 7.4375H6.5625V12.2188C5.83401 12.1126 5.16801 11.748 4.68609 11.1915C4.20416 10.635 3.93846 9.92368 3.9375 9.1875ZM9.1875 10.0625C8.56163 10.0657 7.95019 9.87461 7.4375 9.51562V7.4375H12.2188C12.1126 8.16599 11.748 8.83199 11.1915 9.31391C10.635 9.79584 9.92368 10.0615 9.1875 10.0625Z" fill="#034052"/>
</g>
<defs>
<clipPath id="clip0_7_1275">
<rect width="14" height="14" fill="white"/>
</clipPath>
</defs>
</svg>
