<svg width="16" height="16" viewBox="0 0 16 16" fill="none" xmlns="http://www.w3.org/2000/svg">
<path d="M2.33331 4.16667V5.33333H5.4191C5.55171 5.33333 5.67889 5.28065 5.77265 5.18689L6.79285 4.16667L5.77265 3.14645C5.67889 3.05268 5.55171 3 5.4191 3H3.49998C2.85565 3 2.33331 3.52233 2.33331 4.16667ZM1.33331 4.16667C1.33331 2.97005 2.30336 2 3.49998 2H5.4191C5.81693 2 6.19845 2.15803 6.47976 2.43934L7.70711 3.66667H12.5C13.6966 3.66667 14.6666 4.63671 14.6666 5.83333V11.8333C14.6666 13.0299 13.6966 14 12.5 14H3.49998C2.30336 14 1.33331 13.0299 1.33331 11.8333V4.16667ZM2.33331 6.33333V11.8333C2.33331 12.4777 2.85565 13 3.49998 13H12.5C13.1443 13 13.6666 12.4777 13.6666 11.8333V5.83333C13.6666 5.189 13.1443 4.66667 12.5 4.66667H7.70711L6.47976 5.89399C6.19845 6.1753 5.81693 6.33333 5.4191 6.33333H2.33331Z" fill="#1F454B"/>
</svg>
