<svg width="13" height="13" viewBox="0 0 13 13" fill="none" xmlns="http://www.w3.org/2000/svg">
<path d="M6.71875 11.8828L3.34375 8.50781C3.20312 8.36719 3.20312 8.10937 3.34375 7.96875C3.48437 7.82812 3.74219 7.82812 3.88281 7.96875L6.625 10.7109L6.625 0.375C6.625 0.164062 6.78906 -2.49633e-07 7 -2.40413e-07C7.1875 -2.32217e-07 7.375 0.164062 7.375 0.375L7.375 10.7109L10.0937 7.96875C10.2344 7.82812 10.4922 7.82812 10.6328 7.96875C10.7734 8.10937 10.7734 8.36719 10.6328 8.50781L7.25781 11.8828C7.11719 12.0234 6.85937 12.0234 6.71875 11.8828Z" fill="white"/>
</svg>
