<svg width="14" height="14" viewBox="0 0 14 14" fill="none" xmlns="http://www.w3.org/2000/svg">
<path fill-rule="evenodd" clip-rule="evenodd" d="M2.33325 2.33335C2.33325 2.02393 2.45617 1.72719 2.67496 1.5084C2.89375 1.2896 3.1905 1.16669 3.49992 1.16669H10.4999C10.8093 1.16669 11.1061 1.2896 11.3249 1.5084C11.5437 1.72719 11.6666 2.02393 11.6666 2.33335V11.6667C11.6666 11.9761 11.5437 12.2729 11.3249 12.4916C11.1061 12.7104 10.8093 12.8334 10.4999 12.8334H3.49992C3.1905 12.8334 2.89375 12.7104 2.67496 12.4916C2.45617 12.2729 2.33325 11.9761 2.33325 11.6667V2.33335ZM10.4999 2.33335H3.49992V11.6667H10.4999V2.33335ZM4.66659 5.25002C4.66659 5.09531 4.72804 4.94694 4.83744 4.83754C4.94684 4.72815 5.09521 4.66669 5.24992 4.66669H8.74992C8.90463 4.66669 9.053 4.72815 9.1624 4.83754C9.27179 4.94694 9.33325 5.09531 9.33325 5.25002C9.33325 5.40473 9.27179 5.5531 9.1624 5.6625C9.053 5.7719 8.90463 5.83335 8.74992 5.83335H5.24992C5.09521 5.83335 4.94684 5.7719 4.83744 5.6625C4.72804 5.5531 4.66659 5.40473 4.66659 5.25002ZM5.24992 7.58335C5.09521 7.58335 4.94684 7.64481 4.83744 7.75421C4.72804 7.86361 4.66659 8.01198 4.66659 8.16669C4.66659 8.3214 4.72804 8.46977 4.83744 8.57917C4.94684 8.68856 5.09521 8.75002 5.24992 8.75002H6.99992C7.15463 8.75002 7.303 8.68856 7.4124 8.57917C7.52179 8.46977 7.58325 8.3214 7.58325 8.16669C7.58325 8.01198 7.52179 7.86361 7.4124 7.75421C7.303 7.64481 7.15463 7.58335 6.99992 7.58335H5.24992Z" fill="#00AC8C"/>
</svg>
