<svg width="16" height="17" viewBox="0 0 16 17" fill="none" xmlns="http://www.w3.org/2000/svg">
<path d="M3.66861 3.74745L3.66675 5.16276V12.1656C3.66675 13.3622 4.63679 14.3322 5.83341 14.3322L11.5776 14.3324C11.3716 14.9149 10.8161 15.3322 10.163 15.3322H5.83341C4.08451 15.3322 2.66675 13.9145 2.66675 12.1656V5.16276C2.66675 4.50895 3.08505 3.95284 3.66861 3.74745ZM11.8334 1.99609C12.6618 1.99609 13.3334 2.66767 13.3334 3.49609V12.1628C13.3334 12.9912 12.6618 13.6628 11.8334 13.6628H5.83341C5.00499 13.6628 4.33341 12.9912 4.33341 12.1628V3.49609C4.33341 2.66767 5.00499 1.99609 5.83341 1.99609H11.8334ZM11.8334 2.99609H5.83341C5.55727 2.99609 5.33341 3.21995 5.33341 3.49609V12.1628C5.33341 12.4389 5.55727 12.6628 5.83341 12.6628H11.8334C12.1095 12.6628 12.3334 12.4389 12.3334 12.1628V3.49609C12.3334 3.21995 12.1095 2.99609 11.8334 2.99609Z" fill="#1f454b"/>
</svg>
