<svg width="16" height="16" viewBox="0 0 16 16" fill="none" xmlns="http://www.w3.org/2000/svg">
<path d="M6.83333 7.33333C6.55719 7.33333 6.33333 7.5572 6.33333 7.83333C6.33333 8.10947 6.55719 8.33333 6.83333 8.33333H9.16667C9.4428 8.33333 9.66667 8.10947 9.66667 7.83333C9.66667 7.5572 9.4428 7.33333 9.16667 7.33333H6.83333ZM2 3.5C2 2.67157 2.67157 2 3.5 2H12.5C13.3284 2 14 2.67157 14 3.5V4.5C14 5.02007 13.7353 5.47832 13.3333 5.74741V11.5C13.3333 12.8807 12.2141 14 10.8333 14H5.16667C3.78595 14 2.66667 12.8807 2.66667 11.5V5.74741C2.26467 5.47832 2 5.02007 2 4.5V3.5ZM3.66667 6V11.5C3.66667 12.3284 4.33824 13 5.16667 13H10.8333C11.6617 13 12.3333 12.3284 12.3333 11.5V6H3.66667ZM3.5 3C3.22386 3 3 3.22386 3 3.5V4.5C3 4.77614 3.22386 5 3.5 5H12.5C12.7761 5 13 4.77614 13 4.5V3.5C13 3.22386 12.7761 3 12.5 3H3.5Z" fill="#1F454B"/>
</svg>
