<svg width="24" height="28" viewBox="0 0 24 28" fill="none" xmlns="http://www.w3.org/2000/svg">
<path d="M13.5 18.6667C13.9142 18.6667 14.25 19.0584 14.25 19.5417C14.25 20.0249 13.9142 20.4167 13.5 20.4167H10.5C10.0858 20.4167 9.75 20.0249 9.75 19.5417C9.75 19.0584 10.0858 18.6667 10.5 18.6667H13.5ZM16.5 12.8333C16.9142 12.8333 17.25 13.2251 17.25 13.7083C17.25 14.1916 16.9142 14.5833 16.5 14.5833H7.5C7.08579 14.5833 6.75 14.1916 6.75 13.7083C6.75 13.2251 7.08579 12.8333 7.5 12.8333H16.5ZM19.5 7C19.9142 7 20.25 7.39176 20.25 7.875C20.25 8.35825 19.9142 8.75 19.5 8.75H4.5C4.08579 8.75 3.75 8.35825 3.75 7.875C3.75 7.39176 4.08579 7 4.5 7H19.5Z" fill="#212121"/>
</svg>
