<svg width="16" height="17" viewBox="0 0 16 17" fill="none" xmlns="http://www.w3.org/2000/svg">
<path d="M12.1665 14.33C12.4427 14.33 12.6667 14.5538 12.6667 14.8299C12.6667 15.106 12.4429 15.33 12.1668 15.33L3.50015 15.3326C3.224 15.3326 3 15.1088 3 14.8327C3 14.5566 3.22371 14.3326 3.49985 14.3326L12.1665 14.33ZM7.76547 2.00457L7.83333 2C8.08647 2 8.29567 2.1881 8.3288 2.43215L8.33333 2.5L8.33267 11.6234L10.8139 9.14309C10.9914 8.96563 11.2692 8.94949 11.4649 9.09476L11.521 9.14316C11.6985 9.32069 11.7146 9.59849 11.5693 9.79423L11.5209 9.85029L8.18913 13.1814C8.01173 13.3588 7.73413 13.375 7.5384 13.2299L7.48233 13.1816L4.14669 9.85049C3.95129 9.65536 3.95107 9.33876 4.14621 9.14336C4.32359 8.96576 4.60136 8.94943 4.7972 9.09456L4.85331 9.14289L7.33267 11.6187L7.33333 2.5C7.33333 2.24687 7.52147 2.03767 7.76547 2.00457Z" fill="#1f454b"/>
</svg>
