<svg width="16" height="16" viewBox="0 0 16 16" fill="none" xmlns="http://www.w3.org/2000/svg">
<path d="M2.33331 8.00004C2.33331 4.87043 4.87037 2.33337 7.99998 2.33337C11.1296 2.33337 13.6666 4.87043 13.6666 8.00004C13.6666 11.1296 11.1296 13.6667 7.99998 13.6667C4.87037 13.6667 2.33331 11.1296 2.33331 8.00004ZM7.99998 1.33337C4.31808 1.33337 1.33331 4.31814 1.33331 8.00004C1.33331 11.6819 4.31808 14.6667 7.99998 14.6667C11.6818 14.6667 14.6666 11.6819 14.6666 8.00004C14.6666 4.31814 11.6818 1.33337 7.99998 1.33337ZM7.99538 4.43222C7.96231 4.18826 7.75298 4.00004 7.49998 4.00004C7.22398 4.00004 6.99998 4.22404 6.99998 4.50004V8.50004L7.00458 8.56784C7.03765 8.81184 7.24698 9.00004 7.49998 9.00004H10.1666L10.2344 8.99544C10.4784 8.96237 10.6666 8.75304 10.6666 8.50004C10.6666 8.22404 10.4426 8.00004 10.1666 8.00004H7.99998V4.50004L7.99538 4.43222Z" fill="#034052"/>
</svg>
