<svg width="14" height="14" viewBox="0 0 14 14" fill="none" xmlns="http://www.w3.org/2000/svg">
<path d="M2.33341 4.66669H1.16675V11.6667C1.16675 11.9761 1.28966 12.2729 1.50846 12.4916C1.72725 12.7104 2.024 12.8334 2.33341 12.8334H9.33342V11.6667H2.33341V4.66669Z" fill="#A2AEB0"/>
<path d="M11.6667 1.16669H4.66667C4.35725 1.16669 4.0605 1.2896 3.84171 1.5084C3.62292 1.72719 3.5 2.02393 3.5 2.33335V9.33335C3.5 9.64277 3.62292 9.93952 3.84171 10.1583C4.0605 10.3771 4.35725 10.5 4.66667 10.5H11.6667C11.9761 10.5 12.2728 10.3771 12.4916 10.1583C12.7104 9.93952 12.8333 9.64277 12.8333 9.33335V2.33335C12.8333 2.02393 12.7104 1.72719 12.4916 1.5084C12.2728 1.2896 11.9761 1.16669 11.6667 1.16669ZM6.41667 8.16669V3.50002L10.5 5.83335L6.41667 8.16669Z" fill="#A2AEB0"/>
</svg>
