<svg width="14" height="14" viewBox="0 0 14 14" fill="none" xmlns="http://www.w3.org/2000/svg">
<path d="M4.66659 2.33331V8.27398C4.47967 8.20527 4.28239 8.16897 4.08325 8.16665C3.73714 8.16665 3.39879 8.26928 3.111 8.46157C2.82322 8.65387 2.59892 8.92718 2.46646 9.24695C2.33401 9.56672 2.29935 9.91859 2.36688 10.2581C2.4344 10.5975 2.60107 10.9093 2.84582 11.1541C3.09056 11.3988 3.40238 11.5655 3.74184 11.633C4.08131 11.7005 4.43318 11.6659 4.75295 11.5334C5.07272 11.401 5.34603 11.1767 5.53832 10.8889C5.73062 10.6011 5.83325 10.2628 5.83325 9.91665V4.08331H9.91659V6.52398C9.72967 6.45527 9.53239 6.41897 9.33325 6.41665C8.98714 6.41665 8.64879 6.51928 8.361 6.71157C8.07322 6.90387 7.84892 7.17718 7.71646 7.49695C7.58401 7.81672 7.54935 8.16859 7.61688 8.50805C7.6844 8.84752 7.85107 9.15934 8.09582 9.40408C8.34056 9.64883 8.65238 9.8155 8.99185 9.88302C9.33131 9.95054 9.68318 9.91589 10.0029 9.78344C10.3227 9.65098 10.596 9.42668 10.7883 9.13889C10.9806 8.85111 11.0833 8.51276 11.0833 8.16665V2.33331H4.66659Z" fill="#1F454B"/>
</svg>
