<svg width="16" height="16" viewBox="0 0 16 16" fill="none" xmlns="http://www.w3.org/2000/svg">
<g clip-path="url(#clip0_35343_975)">
<path d="M8 0C3.57841 0 0 3.578 0 8C0 12.4215 3.578 16 8 16C12.4216 16 16 12.422 16 8C16 3.57847 12.422 0 8 0ZM8 14.8837C4.20431 14.8837 1.11628 11.7957 1.11628 8C1.11628 4.20428 4.20431 1.11628 8 1.11628C11.7957 1.11628 14.8837 4.20428 14.8837 8C14.8837 11.7957 11.7957 14.8837 8 14.8837Z" fill="#1F454B"/>
<path d="M8.0003 6.66846C7.52642 6.66846 7.18945 6.86858 7.18945 7.16343V11.1755C7.18945 11.4282 7.52642 11.6809 8.0003 11.6809C8.45311 11.6809 8.82164 11.4282 8.82164 11.1755V7.16336C8.82164 6.86855 8.45311 6.66846 8.0003 6.66846Z" fill="#1F454B"/>
<path d="M8.00019 4.19385C7.51578 4.19385 7.13672 4.54135 7.13672 4.9415C7.13672 5.34169 7.51581 5.69972 8.00019 5.69972C8.47406 5.69972 8.85319 5.34169 8.85319 4.9415C8.85319 4.54135 8.47403 4.19385 8.00019 4.19385Z" fill="#1F454B"/>
</g>
<defs>
<clipPath id="clip0_35343_975">
<rect width="16" height="16" fill="white"/>
</clipPath>
</defs>
</svg>
