<svg width="16" height="17" viewBox="0 0 16 17" fill="none" xmlns="http://www.w3.org/2000/svg">
<path d="M6.16658 5.16675C6.44273 5.16675 6.66658 5.39061 6.66658 5.66675C6.66658 5.91779 6.48158 6.12561 6.24047 6.16133L6.16658 6.16675H4.66658C3.37792 6.16675 2.33325 7.21141 2.33325 8.50008C2.33325 9.74275 3.30463 10.7585 4.52949 10.8295L4.66658 10.8334H6.16658C6.44273 10.8334 6.66658 11.0573 6.66658 11.3334C6.66658 11.5845 6.48158 11.7923 6.24047 11.828L6.16658 11.8334H4.66658C2.82564 11.8334 1.33325 10.341 1.33325 8.50008C1.33325 6.71492 2.73656 5.25751 4.50022 5.17083L4.66658 5.16675H6.16658ZM11.3333 5.16675C13.1742 5.16675 14.6666 6.65913 14.6666 8.50008C14.6666 10.2852 13.2633 11.7426 11.4996 11.8293L11.3333 11.8334H9.83325C9.55712 11.8334 9.33325 11.6095 9.33325 11.3334C9.33325 11.0823 9.51825 10.8745 9.75939 10.8388L9.83325 10.8334H11.3333C12.6219 10.8334 13.6666 9.78875 13.6666 8.50008C13.6666 7.25741 12.6952 6.24168 11.4704 6.17071L11.3333 6.16675H9.83325C9.55712 6.16675 9.33325 5.94289 9.33325 5.66675C9.33325 5.41571 9.51825 5.20788 9.75939 5.17217L9.83325 5.16675H11.3333ZM4.66658 8.00008H11.3333C11.6094 8.00008 11.8333 8.22395 11.8333 8.50008C11.8333 8.75321 11.6451 8.96241 11.4011 8.99555L11.3333 9.00008H4.66658C4.39044 9.00008 4.16659 8.77621 4.16659 8.50008C4.16659 8.24695 4.35469 8.03775 4.59874 8.00461L4.66658 8.00008Z" fill="#212121"/>
</svg>
